<svg width="160" height="160" viewBox="0 0 160 160" fill="none" xmlns="http://www.w3.org/2000/svg">
<g clip-path="url(#clip0_653_41505)">
<path d="M2.46875 80C2.46875 37.1875 37.1875 2.46875 80 2.46875C122.813 2.46875 157.531 37.1875 157.531 80C157.531 122.813 122.813 157.531 80 157.531C37.1875 157.531 2.46875 122.813 2.46875 80Z" fill="#F9FAFB"/>
<g clip-path="url(#clip1_653_41505)">
<path d="M131.625 160.833H27.375C25.8404 160.829 24.3699 160.217 23.2847 159.132C22.1995 158.047 21.5879 156.576 21.5834 155.042V94.2292C21.5879 92.6945 22.1995 91.224 23.2847 90.1388C24.3699 89.0536 25.8404 88.442 27.375 88.4375H131.625C133.16 88.442 134.63 89.0536 135.715 90.1388C136.801 91.224 137.412 92.6945 137.417 94.2292V155.042C137.412 156.576 136.801 158.047 135.715 159.132C134.63 160.217 133.16 160.829 131.625 160.833Z" fill="url(#paint0_linear_653_41505)"/>
<path d="M37.5104 94.2292H121.49C122.642 94.2297 123.746 94.6874 124.561 95.502C125.375 96.3165 125.833 97.4211 125.833 98.573C125.833 99.7249 125.375 100.83 124.561 101.644C123.746 102.459 122.642 102.916 121.49 102.917H37.5104C36.3585 102.916 35.2539 102.459 34.4394 101.644C33.6249 100.83 33.1671 99.7249 33.1667 98.573C33.1671 97.4211 33.6249 96.3165 34.4394 95.502C35.2539 94.6874 36.3585 94.2297 37.5104 94.2292Z" fill="#0A0A0A"/>
<path d="M47.6459 45H111.354C112.115 44.9998 112.868 45.1495 113.571 45.4404C114.274 45.7314 114.912 46.158 115.45 46.6959C115.988 47.2337 116.414 47.8723 116.705 48.575C116.996 49.2778 117.146 50.031 117.146 50.7917V100.021H41.8542V50.7917C41.854 50.031 42.0036 49.2778 42.2946 48.575C42.5856 47.8723 43.0122 47.2337 43.5501 46.6959C44.0879 46.158 44.7265 45.7314 45.4292 45.4404C46.132 45.1495 46.8852 44.9998 47.6459 45Z" fill="#8AB8FF"/>
<path d="M117.146 97.125H41.8542V102.917H117.146V97.125Z" fill="#0065FF"/>
<path d="M117.146 68.1667H41.8542V73.9584H117.146V68.1667Z" fill="#0065FF"/>
<path d="M119.92 149.25C123.119 149.25 125.712 146.657 125.712 143.458C125.712 140.26 123.119 137.667 119.92 137.667C116.721 137.667 114.128 140.26 114.128 143.458C114.128 146.657 116.721 149.25 119.92 149.25Z" fill="#EEF2F3"/>
<path d="M120.042 146.285C121.641 146.285 122.937 144.988 122.937 143.389C122.937 141.789 121.641 140.493 120.042 140.493C118.442 140.493 117.146 141.789 117.146 143.389C117.146 144.988 118.442 146.285 120.042 146.285Z" fill="#0055D6"/>
<path d="M57.7812 50.7917H49.0937C48.2941 50.7917 47.6458 51.44 47.6458 52.2397V60.9272C47.6458 61.7268 48.2941 62.3751 49.0937 62.3751H57.7812C58.5809 62.3751 59.2291 61.7268 59.2291 60.9272V52.2397C59.2291 51.44 58.5809 50.7917 57.7812 50.7917Z" fill="#003585"/>
<path d="M54.8854 79.75H49.0937C48.2941 79.75 47.6458 80.3983 47.6458 81.1979V89.8854C47.6458 90.6851 48.2941 91.3333 49.0937 91.3333H54.8854C55.6851 91.3333 56.3333 90.6851 56.3333 89.8854V81.1979C56.3333 80.3983 55.6851 79.75 54.8854 79.75Z" fill="#003585"/>
<path d="M63.5729 79.75H60.6771C59.8774 79.75 59.2292 80.3983 59.2292 81.1979V89.8854C59.2292 90.6851 59.8774 91.3333 60.6771 91.3333H63.5729C64.3726 91.3333 65.0209 90.6851 65.0209 89.8854V81.1979C65.0209 80.3983 64.3726 79.75 63.5729 79.75Z" fill="#003585"/>
<path d="M72.2604 79.75H69.3646C68.5649 79.75 67.9167 80.3983 67.9167 81.1979V89.8854C67.9167 90.6851 68.5649 91.3333 69.3646 91.3333H72.2604C73.0601 91.3333 73.7084 90.6851 73.7084 89.8854V81.1979C73.7084 80.3983 73.0601 79.75 72.2604 79.75Z" fill="#003585"/>
<path d="M83.8438 79.75H80.9479C80.1483 79.75 79.5 80.3983 79.5 81.1979V89.8854C79.5 90.6851 80.1483 91.3333 80.9479 91.3333H83.8438C84.6434 91.3333 85.2917 90.6851 85.2917 89.8854V81.1979C85.2917 80.3983 84.6434 79.75 83.8438 79.75Z" fill="#003585"/>
<path d="M109.906 79.75H104.115C103.315 79.75 102.667 80.3983 102.667 81.1979V89.8854C102.667 90.6851 103.315 91.3333 104.115 91.3333H109.906C110.706 91.3333 111.354 90.6851 111.354 89.8854V81.1979C111.354 80.3983 110.706 79.75 109.906 79.75Z" fill="#003585"/>
<path d="M98.3229 79.75H89.6354C88.8358 79.75 88.1875 80.3983 88.1875 81.1979V89.8854C88.1875 90.6851 88.8358 91.3333 89.6354 91.3333H98.3229C99.1226 91.3333 99.7708 90.6851 99.7708 89.8854V81.1979C99.7708 80.3983 99.1226 79.75 98.3229 79.75Z" fill="#003585"/>
<path d="M109.906 53.6875H66.4687C65.6691 53.6875 65.0208 54.3358 65.0208 55.1354V58.0312C65.0208 58.8309 65.6691 59.4792 66.4687 59.4792H109.906C110.706 59.4792 111.354 58.8309 111.354 58.0312V55.1354C111.354 54.3358 110.706 53.6875 109.906 53.6875Z" fill="#003585"/>
</g>
</g>
<defs>
<linearGradient id="paint0_linear_653_41505" x1="79.5" y1="87.812" x2="79.5" y2="160.544" gradientUnits="userSpaceOnUse">
<stop offset="0.9" stop-color="#6D7882"/>
<stop offset="0.917" stop-color="#45494D"/>
</linearGradient>
<clipPath id="clip0_653_41505">
<rect width="160" height="160" rx="80" fill="white"/>
</clipPath>
<clipPath id="clip1_653_41505">
<rect width="139" height="139" fill="white" transform="translate(10 45)"/>
</clipPath>
</defs>
</svg>
